# xmcd CD database file
#
# Track frame offsets:
#	150
#	32336
#	67991
#	92390
#	115271
#	140647
#	179786
#	203549
#	237377
#
# Disc length: 3595 seconds
#
# Revision: 0
# Processed by: cddbd v1.5.2PL0 Copyright (c) Steve Scherf et al.
# Submitted via: CDex 1.77
#
DISCID=750e0909
DTITLE=Alex Bellegarde Trio - Floating
DYEAR=2014
DGENRE=Jazz
TTITLE0=Floating Suite Part 1
TTITLE1=Floating Suite Part 2
TTITLE2=Brown's Groove v.14
TTITLE3=Free Bee
TTITLE4=Minor Flu
TTITLE5=Da Boo
TTITLE6=Okidokee
TTITLE7=Hay Day
TTITLE8=The Run
EXTD=YEAR: 2014
EXTT0=
EXTT1=
EXTT2=
EXTT3=
EXTT4=
EXTT5=
EXTT6=
EXTT7=
EXTT8=
PLAYORDER=
